0
SECTION
2
HEADER
9
$INSUNITS
70
1
9
$ACADVER
1
AC1014
9
$HANDSEED
5
FFFF
0
ENDSEC
0
SECTION
2
TABLES
0
TABLE
2
VPORT
5
8
100
AcDbSymbolTable
0
ENDTAB
0
TABLE
2
LTYPE
5
5
100
AcDbSymbolTable
0
LTYPE
5
14
100
AcDbSymbolTableRecord
100
AcDbLinetypeTableRecord
2
BYBLOCK
70
0
0
LTYPE
5
15
100
AcDbSymbolTableRecord
100
AcDbLinetypeTableRecord
2
BYLAYER
70
0
0
LTYPE
5
16
100
AcDbSymbolTableRecord
100
AcDbLinetypeTableRecord
2
DASHED
70
0
3
Dashed __ __ __ __ __ __ __ __ __ __ __ __ __ _
72
65
73
2
40
0.75
49
0.5
74
0
49
-0.25
74
0
0
ENDTAB
0
TABLE
2
LAYER
5
2
100
AcDbSymbolTable
70
2
0
LAYER
5
50
100
AcDbSymbolTableRecord
100
AcDbLayerTableRecord
2
0
70
0
62
7
6
CONTINUOUS
0
ENDTAB
0
TABLE
2
STYLE
5
3
100
AcDbSymbolTable
70
1
0
STYLE
5
11
100
AcDbSymbolTableRecord
100
AcDbTextStyleTableRecord
2
STANDARD
70
0
0
ENDTAB
0
TABLE
2
VIEW
5
6
100
AcDbSymbolTable
70
0
0
ENDTAB
0
TABLE
2
UCS
5
7
100
AcDbSymbolTable
70
0
0
ENDTAB
0
TABLE
2
APPID
5
9
100
AcDbSymbolTable
70
2
0
APPID
5
12
100
AcDbSymbolTableRecord
100
AcDbRegAppTableRecord
2
ACAD
70
0
0
ENDTAB
0
TABLE
2
DIMSTYLE
5
A
100
AcDbSymbolTable
70
1
0
ENDTAB
0
TABLE
2
BLOCK_RECORD
5
1
100
AcDbSymbolTable
70
1
0
BLOCK_RECORD
5
1F
100
AcDbSymbolTableRecord
100
AcDbBlockTableRecord
2
*MODEL_SPACE
0
BLOCK_RECORD
5
1B
100
AcDbSymbolTableRecord
100
AcDbBlockTableRecord
2
*PAPER_SPACE
0
ENDTAB
0
ENDSEC
0
SECTION
2
BLOCKS
0
BLOCK
5
20
100
AcDbEntity
100
AcDbBlockBegin
2
*MODEL_SPACE
0
ENDBLK
5
21
100
AcDbEntity
100
AcDbBlockEnd
0
BLOCK
5
1C
100
AcDbEntity
100
AcDbBlockBegin
2
*PAPER_SPACE
0
ENDBLK
5
1D
100
AcDbEntity
100
AcDbBlockEnd
0
ENDSEC
0
SECTION
2
ENTITIES
0
LWPOLYLINE
5
100
100
AcDbEntity
8
0
100
AcDbPolyline
90
40
70
1
43
0.0
10
0.62499984981506751
20
9.5000004805917797
10
0.87499984981506707
20
9.5000004805917797
10
0.87499984981506707
20
9.3750004805917797
10
0.62499984981506751
20
9.3750004805917779
10
0.6249998498150674
20
6.8750004805917806
10
0.87499984981506673
20
6.8750004805917806
10
0.87499984981506673
20
6.7500004805917815
10
1.2499998498150668
20
6.7500004805917815
10
1.2499998498150668
20
6.8750004805917806
10
1.7499998498150671
20
6.8750004805917806
10
1.7499998498150671
20
6.7500004805917815
10
2.1249998498150711
20
6.7500004805917815
10
2.124999849815072
20
6.8750004805917921
10
2.3749998498150684
20
6.8750004805917948
10
2.3749998498150702
20
7.6875004805917815
10
2.499999849815068
20
7.6875004805917806
10
2.499999849815068
20
8.5625004805917833
10
2.3749998498150715
20
8.5625004805917815
10
2.374999849815072
20
9.3750004805917833
10
2.1249998498150391
20
9.3750004805917833
10
2.1249998498150391
20
9.5000004805917815
10
2.3749998498150644
20
9.500000480591785
10
2.3749998498150711
20
10.062500480591781
10
2.499999849815068
20
10.062500480591783
10
2.499999849815068
20
10.687500480591781
10
2.3749998498150977
20
10.68750048059178
10
2.3749998498143978
20
11.312500480591776
10
2.499999849815068
20
11.312500480591781
10
2.499999849815068
20
11.93750048059178
10
2.3749998498138214
20
11.93750048059178
10
2.3749998498138507
20
12.500000480591774
10
2.1249998498150418
20
12.500000480591778
10
2.1249998498150409
20
12.625000480591781
10
1.7499998498150695
20
12.625000480591781
10
1.74999984981507
20
12.50000048059178
10
1.2499998498150653
20
12.500000480591781
10
1.2499998498150651
20
12.625000480591781
10
0.8749998498150664
20
12.625000480591781
10
0.87499984981506707
20
12.500000480591781
10
0.62499984981506751
20
12.500000480591781
0
LWPOLYLINE
5
101
100
AcDbEntity
8
0
100
AcDbPolyline
90
4
70
1
43
0.0
10
1.3749998498150677
20
8.5625004805917797
10
1.499999849815068
20
8.5625004805917797
10
1.499999849815068
20
7.6875004805917806
10
1.374999849815068
20
7.6875004805917806
0
LWPOLYLINE
5
102
100
AcDbEntity
8
0
100
AcDbPolyline
90
4
70
1
43
0.0
10
1.7499998498150682
20
9.3750004805917815
10
1.2499998498150831
20
9.3750004805917815
10
1.2499998498150831
20
9.5000004805917762
10
1.7499998498150682
20
9.5000004805917797
0
LWPOLYLINE
5
103
100
AcDbEntity
8
0
100
AcDbPolyline
90
40
70
1
43
0.0
10
0.24999993992602723
20
6.0750002402958909
10
0.37499993992601988
20
6.0750002402958909
10
0.37499993992601977
20
5.5750002402958918
10
0.24999993992602712
20
5.5750002402958918
10
0.24999993992602693
20
4.8500002402958913
10
0.3749999399260196
20
4.8500002402958913
10
0.37499993992601943
20
4.3500002402958922
10
0.24999993992602684
20
4.3500002402958922
10
0.24999993992602668
20
3.6250002402958921
10
0.37499993992601932
20
3.6250002402958921
10
0.37499993992601899
20
3.125000240295893
10
0.24999993992602659
20
3.1250002402958921
10
0.2499999399260264
20
2.4000002402958915
10
0.37499993992601699
20
2.4000002402958915
10
0.37499993992601793
20
1.9000002402958938
10
0.24999993992602629
20
1.9000002402958924
10
0.24999993992602615
20
1.1750002402958952
10
0.3749999399260262
20
1.1750002402958959
10
0.37499993992602693
20
0.67500024029589345
10
0.24999993992602601
20
0.67500024029589412
10
0.24999993992602593
20
0.25000024029589157
10
0.62499993992602565
20
0.25000024029589146
10
0.62499993992602565
20
0.37500024029589185
10
0.99999993992602543
20
0.3750002402958918
10
0.99999993992602543
20
0.25000024029589157
10
1.4999999399260253
20
0.25000024029589146
10
1.4999999399260253
20
0.37500024029589185
10
1.8749999399260253
20
0.3750002402958918
10
1.8749999399260253
20
0.25000024029589085
10
2.1249999399260258
20
0.2500002402958908
10
2.1249999399260275
20
6.5000002402958899
10
1.8749999399260271
20
6.5000002402958907
10
1.8749999399260269
20
6.3750002402958916
10
1.4999999399260269
20
6.3750002402958899
10
1.4999999399260271
20
6.5000002402958899
10
0.99999993992602698
20
6.5000002402958907
10
0.99999993992602698
20
6.3750002402958916
10
0.62499993992602698
20
6.3750002402958899
10
0.62499993992602698
20
6.5000002402958899
10
0.24999993992602731
20
6.5000002402958907
0
LWPOLYLINE
5
104
100
AcDbEntity
8
0
100
AcDbPolyline
90
4
70
1
43
0.0
10
0.99999993992602665
20
5.1500002402958911
10
0.62499993992602676
20
5.1500002402958911
10
0.62499993992602665
20
5.2750002402958902
10
0.99999993992602665
20
5.2750002402958902
0
LWPOLYLINE
5
105
100
AcDbEntity
8
0
100
AcDbPolyline
90
4
70
1
43
0.0
10
1.4999999399260269
20
1.6000002402958944
10
1.8749999399260262
20
1.6000002402958937
10
1.8749999399260262
20
1.4750002402958919
10
1.4999999399260262
20
1.4750002402958926
0
LWPOLYLINE
5
106
100
AcDbEntity
8
0
100
AcDbPolyline
90
4
70
1
43
0.0
10
0.99999993992602543
20
1.4750002402958968
10
0.62499993992602387
20
1.4750002402958975
10
0.62499993992602587
20
1.6000002402958979
10
0.99999993992602576
20
1.6000002402958964
0
LWPOLYLINE
5
107
100
AcDbEntity
8
0
100
AcDbPolyline
90
4
70
1
43
0.0
10
1.4999999399260262
20
2.8250002402958927
10
1.8749999399260262
20
2.8250002402958927
10
1.8749999399260262
20
2.7000002402958918
10
1.4999999399260262
20
2.7000002402958918
0
LWPOLYLINE
5
108
100
AcDbEntity
8
0
100
AcDbPolyline
90
4
70
1
43
0.0
10
1.4999999399260269
20
5.2750002402958911
10
1.8749999399260269
20
5.2750002402958902
10
1.8749999399260269
20
5.1500002402958911
10
1.4999999399260269
20
5.1500002402958893
0
LWPOLYLINE
5
109
100
AcDbEntity
8
0
100
AcDbPolyline
90
4
70
1
43
0.0
10
0.99999993992602609
20
3.9250002402958919
10
0.62499993992602643
20
3.9250002402958919
10
0.62499993992602643
20
4.0500002402958906
10
0.99999993992602609
20
4.0500002402958906
0
LWPOLYLINE
5
110
100
AcDbEntity
8
0
100
AcDbPolyline
90
4
70
1
43
0.0
10
0.99999993992602609
20
2.7000002402958923
10
0.6249999399260262
20
2.7000002402958923
10
0.62499993992602609
20
2.8250002402958927
10
0.99999993992602609
20
2.8250002402958927
0
LWPOLYLINE
5
111
100
AcDbEntity
8
0
100
AcDbPolyline
90
4
70
1
43
0.0
10
1.4999999399260264
20
4.0500002402958906
10
1.8749999399260264
20
4.0500002402958906
10
1.8749999399260262
20
3.9250002402958915
10
1.4999999399260262
20
3.9250002402958919
0
LWPOLYLINE
5
112
100
AcDbEntity
8
0
100
AcDbPolyline
90
40
70
1
43
0.0
10
2.3749998798520533
20
3.6250002402958921
10
2.4999998798520542
20
3.6250002402958921
10
2.4999998798520542
20
3.1250002402958921
10
2.3749998798520533
20
3.1250002402958921
10
2.3749998798520533
20
2.4000002402958915
10
2.4999998798520533
20
2.400000240295892
10
2.4999998798520533
20
1.9000002402958924
10
2.3749998798520533
20
1.9000002402958918
10
2.3749998798520529
20
1.1750002402958932
10
2.4999998798520533
20
1.1750002402958939
10
2.4999998798520533
20
0.67500024029589412
10
2.3749998798520524
20
0.67500024029589412
10
2.3749998798520533
20
0.25000024029589157
10
2.7499998798520529
20
0.25000024029589146
10
2.7499998798520529
20
0.37500024029589185
10
3.124999879852052
20
0.3750002402958918
10
3.124999879852052
20
0.25000024029589157
10
3.6249998798520529
20
0.25000024029589146
10
3.6249998798520529
20
0.37500024029589185
10
3.9999998798520529
20
0.3750002402958918
10
3.999999879852052
20
0.25000024029589085
10
4.2499998798520533
20
0.2500002402958908
10
4.2499998798520551
20
6.5000002402958899
10
3.9999998798520542
20
6.5000002402958907
10
3.9999998798520542
20
6.3750002402958916
10
3.6249998798520542
20
6.3750002402958899
10
3.6249998798520542
20
6.5000002402958899
10
3.1249998798520537
20
6.5000002402958907
10
3.1249998798520542
20
6.3750002402958916
10
2.7499998798520542
20
6.3750002402958899
10
2.7499998798520542
20
6.5000002402958899
10
2.3749998798520546
20
6.5000002402958907
10
2.3749998798520546
20
6.07500024029589
10
2.4999998798520551
20
6.07500024029589
10
2.4999998798520551
20
5.5750002402958909
10
2.3749998798520546
20
5.5750002402958909
10
2.3749998798520537
20
4.8500002402958913
10
2.4999998798520542
20
4.8500002402958913
10
2.4999998798520546
20
4.3500002402958922
10
2.3749998798520537
20
4.3500002402958922
0
LWPOLYLINE
5
113
100
AcDbEntity
8
0
100
AcDbPolyline
90
4
70
1
43
0.0
10
3.1249998798520537
20
5.1500002402958911
10
2.7499998798520542
20
5.1500002402958911
10
2.7499998798520542
20
5.2750002402958902
10
3.1249998798520537
20
5.2750002402958902
0
LWPOLYLINE
5
114
100
AcDbEntity
8
0
100
AcDbPolyline
90
4
70
1
43
0.0
10
3.3749998798520529
20
3.1250002402958921
10
3.4999998798520529
20
3.1250002402958921
10
3.4999998798520537
20
2.5000002402958921
10
3.3749998798520529
20
2.5000002402958921
0
LWPOLYLINE
5
115
100
AcDbEntity
8
0
100
AcDbPolyline
90
4
70
1
43
0.0
10
3.6249998798520533
20
1.6000002402958922
10
3.9999998798520537
20
1.6000002402958915
10
3.9999998798520529
20
1.4750002402958906
10
3.6249998798520529
20
1.4750002402958926
0
LWPOLYLINE
5
116
100
AcDbEntity
8
0
100
AcDbPolyline
90
4
70
1
43
0.0
10
3.1249998798520524
20
1.4750002402958919
10
2.7499998798520529
20
1.4750002402958919
10
2.7499998798520529
20
1.6000002402958915
10
3.1249998798520524
20
1.6000002402958915
0
LWPOLYLINE
5
117
100
AcDbEntity
8
0
100
AcDbPolyline
90
4
70
1
43
0.0
10
3.1249998798520533
20
3.9250002402958919
10
2.7499998798520533
20
3.9250002402958919
10
2.7499998798520537
20
4.0500002402958906
10
3.1249998798520537
20
4.0500002402958906
0
LWPOLYLINE
5
118
100
AcDbEntity
8
0
100
AcDbPolyline
90
4
70
1
43
0.0
10
3.6249998798520542
20
5.2750002402958911
10
3.9999998798520542
20
5.2750002402958902
10
3.9999998798520542
20
5.1500002402958911
10
3.6249998798520542
20
5.1500002402958893
0
LWPOLYLINE
5
119
100
AcDbEntity
8
0
100
AcDbPolyline
90
4
70
1
43
0.0
10
3.6249998798520542
20
4.0500002402958906
10
3.9999998798520542
20
4.0500002402958906
10
3.9999998798520537
20
3.9250002402958915
10
3.6249998798520533
20
3.9250002402958919
0
LWPOLYLINE
5
120
100
AcDbEntity
8
0
100
AcDbPolyline
90
4
70
1
43
0.0
10
3.6249998798520533
20
2.8250002402958918
10
3.9999998798520537
20
2.8250002402958918
10
3.9999998798520537
20
2.7000002402958918
10
3.6249998798520533
20
2.7000002402958918
0
LWPOLYLINE
5
121
100
AcDbEntity
8
0
100
AcDbPolyline
90
4
70
1
43
0.0
10
3.374999879852052
20
1.7500002402958923
10
3.4999998798520524
20
1.7500002402958923
10
3.4999998798520529
20
1.1250002402958923
10
3.374999879852052
20
1.1250002402958923
0
LWPOLYLINE
5
122
100
AcDbEntity
8
0
100
AcDbPolyline
90
4
70
1
43
0.0
10
3.1249998798520529
20
2.7000002402958923
10
2.7499998798520533
20
2.7000002402958923
10
2.7499998798520533
20
2.8250002402958918
10
3.1249998798520529
20
2.8250002402958918
0
LWPOLYLINE
5
123
100
AcDbEntity
8
0
100
AcDbPolyline
90
4
70
1
43
0.0
10
3.1874998798520542
20
4.0000002402958925
10
3.5624998798520542
20
4.0000002402958925
10
3.5624998798520542
20
3.8750002402958916
10
3.1874998798520542
20
3.8750002402958916
0
LWPOLYLINE
5
124
100
AcDbEntity
8
0
100
AcDbPolyline
90
40
70
1
43
0.0
10
2.7500002402958881
20
7.4375019223671286
10
2.8750002402971346
20
7.4375019223671286
10
2.8750002402971053
20
6.8750019223671348
10
3.1250002402959143
20
6.8750019223671295
10
3.1250002402959147
20
6.7500019223671259
10
3.5000002402958859
20
6.7500019223671259
10
3.5000002402958859
20
6.8750019223671277
10
4.0000002402958899
20
6.875001922367125
10
4.0000002402958916
20
6.7500019223671259
10
4.3750002402958899
20
6.7500019223671259
10
4.375000240295889
20
6.875001922367125
10
4.6250002402958872
20
6.8750019223671242
10
4.625000240295889
20
9.8750019223671259
10
4.3750002402958899
20
9.8750019223671259
10
4.3750002402958899
20
10.000001922367124
10
4.625000240295889
20
10.000001922367128
10
4.6250002402958907
20
12.500001922367126
10
4.3750002402958916
20
12.500001922367126
10
4.3750002402958916
20
12.625001922367124
10
4.0000002402958916
20
12.625001922367124
10
4.0000002402958916
20
12.500001922367126
10
3.5000002402958907
20
12.500001922367124
10
3.5000002402958916
20
12.625001922367124
10
3.1250002402958872
20
12.625001922367124
10
3.1250002402958863
20
12.500001922367113
10
2.8750002402958903
20
12.500001922367112
10
2.8750002402958881
20
11.687501922367124
10
2.7500002402958903
20
11.687501922367126
10
2.7500002402958899
20
10.812501922367122
10
2.8750002402958863
20
10.812501922367124
10
2.8750002402958854
20
10.000001922367124
10
3.1250002402959183
20
10.000001922367124
10
3.1250002402959183
20
9.8750019223671242
10
2.875000240295893
20
9.8750019223671206
10
2.8750002402958863
20
9.3125019223671259
10
2.750000240295889
20
9.3125019223671259
10
2.750000240295889
20
8.6875019223671259
10
2.8750002402958592
20
8.6875019223671277
10
2.8750002402965591
20
8.0625019223671295
10
2.7500002402958885
20
8.0625019223671259
0
LWPOLYLINE
5
125
100
AcDbEntity
8
0
100
AcDbPolyline
90
4
70
1
43
0.0
10
3.500000240295889
20
10.000001922367126
10
4.0000002402958739
20
10.000001922367126
10
4.0000002402958739
20
9.8750019223671295
10
3.500000240295889
20
9.8750019223671259
0
LWPOLYLINE
5
126
100
AcDbEntity
8
0
100
AcDbPolyline
90
28
70
1
43
0.0
10
4.874999879852056
20
9.0000004805917957
10
4.999999879852056
20
9.0000004805917957
10
4.9999998798520551
20
8.2500004805917975
10
4.8749998798520551
20
8.2500004805917975
10
4.8749998798520524
20
7.6250004805917815
10
4.9999998798520533
20
7.6250004805917815
10
4.9999998798520542
20
6.8750004805917833
10
5.8124998798520533
20
6.8750004805917824
10
5.8124998798520524
20
6.7500004805917815
10
6.6874998798520515
20
6.7500004805917815
10
6.6874998798520506
20
6.8750004805917824
10
7.4999998798520515
20
6.8750004805917806
10
7.4999998798520542
20
7.6250004805917797
10
7.6249998798520542
20
7.6250004805917815
10
7.6249998798520506
20
8.2500004805917833
10
7.4999998798520515
20
8.2500004805917833
10
7.4999998798520524
20
9.0000004805917815
10
7.6249998798520506
20
9.0000004805917815
10
7.6249998798520542
20
9.6250004805917797
10
7.4999998798520542
20
9.6250004805917797
10
7.4999998798520524
20
10.375000480591781
10
6.6874998798520533
20
10.375000480591781
10
6.6874998798520533
20
10.500000480591781
10
5.8124998798520551
20
10.500000480591781
10
5.8124998798520551
20
10.375000480591781
10
4.9999998798520568
20
10.375000480591781
10
4.999999879852056
20
9.6250004805917797
10
4.874999879852056
20
9.6250004805917797
0
LWPOLYLINE
5
127
100
AcDbEntity
8
0
100
AcDbPolyline
90
76
70
1
43
0.0
10
4.4999995194082185
20
0.6749999962453771
10
4.6249995194082185
20
0.67499999624537732
10
4.6249995194082185
20
0.24999999624537694
10
5.4374995194082176
20
0.24999999624537669
10
5.4374995194082176
20
0.37499999624537655
10
6.3124995194082176
20
0.37499999624537644
10
6.3124995194082176
20
0.24999999624537669
10
7.1249995194082176
20
0.24999999624537578
10
7.1249995194082247
20
0.67499999624537677
10
7.2499995194082212
20
0.67499999624537677
10
7.2499995194082185
20
0.249999996245376
10
7.8124995194082176
20
0.24999999624537633
10
7.8124995194082176
20
0.37499999624537672
10
8.4374995194082167
20
0.37499999624537661
10
8.4374995194082185
20
0.24999999624537581
10
9.0624995194082167
20
0.24999999624537927
10
9.0624995194082185
20
0.37499999624537655
10
9.6874995194082185
20
0.374999996245376
10
9.6874995194082185
20
0.24999999624537603
10
10.249999519408222
20
0.24999999624540764
10
10.24999951940821
20
0.67499999624537521
10
10.374999519408217
20
0.67499999624537521
10
10.37499951940822
20
1.1749999962453508
10
10.249999519408219
20
1.1749999962453515
10
10.24999951940822
20
1.8999999962453518
10
10.37499951940822
20
1.8999999962453518
10
10.37499951940822
20
2.3999999962453518
10
10.249999519408219
20
2.3999999962453522
10
10.249999519408219
20
3.1249999962453865
10
10.374999519408222
20
3.1249999962453865
10
10.374999519408224
20
3.624999996245386
10
10.249999519408222
20
3.624999996245386
10
10.249999519408224
20
4.3499999962453915
10
10.37499951940822
20
4.3499999962453924
10
10.374999519408219
20
4.8499999962453924
10
10.249999519408215
20
4.8499999962453924
10
10.249999519408215
20
5.5749999962453911
10
10.374999519408217
20
5.5749999962453911
10
10.374999519408219
20
6.0749999962453911
10
10.249999519408219
20
6.0749999962453911
10
10.24999951940822
20
6.49999999624539
10
9.6874995194082185
20
6.4999999962453758
10
9.6874995194082185
20
6.3749999962453749
10
9.0624995194082185
20
6.3749999962453749
10
9.0624995194082185
20
6.4999999962453758
10
8.4374995194082203
20
6.4999999962453749
10
8.4374995194082203
20
6.3749999962453749
10
7.8124995194082203
20
6.3749999962453749
10
7.8124995194082185
20
6.4999999962453758
10
7.2499995194082185
20
6.4999999962453758
10
7.2499995194082212
20
6.0749999962453769
10
7.1249995194082221
20
6.0749999962453769
10
7.1249995194082185
20
6.4999999962453758
10
6.3124995194082194
20
6.4999999962453758
10
6.3124995194082194
20
6.3749999962453749
10
5.4374995194082194
20
6.3749999962453749
10
5.4374995194082185
20
6.4999999962453758
10
4.6249995194082212
20
6.4999999962453758
10
4.624999519408215
20
6.0749999962453769
10
4.4999995194082194
20
6.0749999962453769
10
4.4999995194082194
20
5.5749999962455483
10
4.6249995194082194
20
5.5749999962455501
10
4.6249995194082194
20
4.8499999962455504
10
4.4999995194082185
20
4.8499999962455504
10
4.4999995194082194
20
4.3499999962453888
10
4.6249995194082194
20
4.3499999962453906
10
4.6249995194082185
20
3.6249999962453887
10
4.4999995194082194
20
3.6249999962453874
10
4.4999995194082194
20
3.1249999962453954
10
4.6249995194082194
20
3.1249999962453963
10
4.6249995194082185
20
2.3999999962453695
10
4.4999995194082194
20
2.39999999624537
10
4.4999995194082194
20
1.8999999962453828
10
4.6249995194082194
20
1.8999999962453835
10
4.6249995194082185
20
1.1749999962453836
10
4.4999995194082194
20
1.1749999962453836
0
LWPOLYLINE
5
128
100
AcDbEntity
8
0
100
AcDbPolyline
90
4
70
1
43
0.0
10
8.4374995194082203
20
4.0499999962453757
10
8.4374995194082203
20
3.9249999962453752
10
7.8124995194082185
20
3.9249999962453752
10
7.8124995194082185
20
4.0499999962453757
0
LWPOLYLINE
5
129
100
AcDbEntity
8
0
100
AcDbPolyline
90
4
70
1
43
0.0
10
8.4374995194082203
20
1.5999999962453753
10
8.4374995194082203
20
1.4749999962453753
10
7.8124995194082185
20
1.4749999962453753
10
7.8124995194082176
20
1.5999999962453753
0
LWPOLYLINE
5
130
100
AcDbEntity
8
0
100
AcDbPolyline
90
4
70
1
43
0.0
10
7.2499995194082212
20
4.3499999962453906
10
7.2499995194082212
20
3.6249999962453869
10
7.1249995194082221
20
3.6249999962453869
10
7.1249995194082221
20
4.3499999962453906
0
LWPOLYLINE
5
131
100
AcDbEntity
8
0
100
AcDbPolyline
90
4
70
1
43
0.0
10
7.249999519408223
20
5.5749999962455448
10
7.249999519408223
20
4.8499999962455442
10
7.1249995194082221
20
4.8499999962455504
10
7.1249995194082221
20
5.5749999962455519
0
LWPOLYLINE
5
132
100
AcDbEntity
8
0
100
AcDbPolyline
90
4
70
1
43
0.0
10
9.6874995194082185
20
2.8249999962453751
10
9.6874995194082185
20
2.6999999962453751
10
9.0624995194082167
20
2.6999999962453751
10
9.0624995194082185
20
2.8249999962453751
0
LWPOLYLINE
5
133
100
AcDbEntity
8
0
100
AcDbPolyline
90
4
70
1
43
0.0
10
9.6874995194082203
20
5.2749999962453762
10
9.6874995194082203
20
5.1499999962453771
10
9.0624995194082185
20
5.1499999962453771
10
9.0624995194082185
20
5.2749999962453762
0
LWPOLYLINE
5
134
100
AcDbEntity
8
0
100
AcDbPolyline
90
4
70
1
43
0.0
10
9.6874995194082203
20
4.0499999962453757
10
9.6874995194082203
20
3.9249999962453752
10
9.0624995194082185
20
3.9249999962453752
10
9.0624995194082185
20
4.0499999962453757
0
LWPOLYLINE
5
135
100
AcDbEntity
8
0
100
AcDbPolyline
90
4
70
1
43
0.0
10
9.0624995194082185
20
1.4749999962453753
10
9.0624995194082185
20
1.5999999962453753
10
9.6874995194082203
20
1.5999999962453753
10
9.6874995194082185
20
1.4749999962453753
0
LWPOLYLINE
5
136
100
AcDbEntity
8
0
100
AcDbPolyline
90
4
70
1
43
0.0
10
6.3124995194082194
20
2.8749999962453763
10
6.3124995194082194
20
2.7499999962453763
10
5.4374995194082194
20
2.7499999962453763
10
5.4374995194082194
20
2.8749999962453767
0
LWPOLYLINE
5
137
100
AcDbEntity
8
0
100
AcDbPolyline
90
4
70
1
43
0.0
10
7.2499995194082212
20
3.1249999962453963
10
7.2499995194082212
20
2.3999999962453611
10
7.1249995194082221
20
2.399999996245362
10
7.1249995194082221
20
3.1249999962453963
0
LWPOLYLINE
5
138
100
AcDbEntity
8
0
100
AcDbPolyline
90
4
70
1
43
0.0
10
7.2499995194082212
20
1.8999999962453513
10
7.2499995194082212
20
1.1749999962453517
10
7.1249995194082221
20
1.1749999962453517
10
7.1249995194082221
20
1.8999999962453513
0
LWPOLYLINE
5
139
100
AcDbEntity
8
0
100
AcDbPolyline
90
4
70
1
43
0.0
10
8.4374995194082203
20
2.8249999962453756
10
8.4374995194082203
20
2.6999999962453751
10
7.8124995194082185
20
2.6999999962453751
10
7.8124995194082176
20
2.8249999962453756
0
LWPOLYLINE
5
140
100
AcDbEntity
8
0
100
AcDbPolyline
90
4
70
1
43
0.0
10
8.4374995194082203
20
5.2749999962453762
10
8.4374995194082203
20
5.1499999962453762
10
7.8124995194082185
20
5.1499999962453762
10
7.8124995194082185
20
5.2749999962453762
0
LWPOLYLINE
5
141
100
AcDbEntity
8
0
100
AcDbPolyline
90
40
70
1
43
0.0
10
12.499999999999998
20
0.67500024029589134
10
12.374999999999998
20
0.67500024029589134
10
12.374999999999998
20
1.175000240295891
10
12.499999999999998
20
1.175000240295891
10
12.499999999999998
20
1.9000002402958918
10
12.374999999999998
20
1.9000002402958918
10
12.374999999999998
20
2.4000002402958907
10
12.499999999999998
20
2.4000002402958907
10
12.499999999999998
20
3.1250002402958907
10
12.374999999999998
20
3.1250002402958916
10
12.374999999999998
20
3.6250002402958912
10
12.499999999999998
20
3.6250002402958912
10
12.499999999999998
20
4.3500002402958922
10
12.374999999999998
20
4.3500002402958922
10
12.374999999999998
20
4.8500002402958913
10
12.499999999999998
20
4.8500002402958913
10
12.499999999999998
20
5.5750002402958918
10
12.375
20
5.5750002402958918
10
12.374999999999998
20
6.0750002402958909
10
12.499999999999998
20
6.0750002402958909
10
12.499999999999998
20
6.5000002402958907
10
12.125
20
6.5000002402958907
10
12.125
20
6.3750002402958916
10
11.75
20
6.3750002402958916
10
11.75
20
6.5000002402958907
10
11.25
20
6.5000002402958907
10
11.25
20
6.3750002402958916
10
10.875
20
6.3750002402958916
10
10.875
20
6.5000002402958925
10
10.625
20
6.5000002402958907
10
10.624999999999998
20
0.25000024029589157
10
10.874999999999998
20
0.25000024029589224
10
10.874999999999998
20
0.37500024029589185
10
11.249999999999998
20
0.3750002402958918
10
11.249999999999998
20
0.25000024029589157
10
11.749999999999998
20
0.25000024029589146
10
11.749999999999998
20
0.37500024029589119
10
12.124999999999998
20
0.37500024029589107
10
12.124999999999998
20
0.25000024029589157
10
12.499999999999998
20
0.25000024029589146
0
LWPOLYLINE
5
142
100
AcDbEntity
8
0
100
AcDbPolyline
90
4
70
1
43
0.0
10
11.687499999999998
20
4.0000002402958925
10
11.687499999999998
20
3.8750002402958925
10
11.312499999999998
20
3.8750002402958916
10
11.312499999999998
20
4.0000002402958925
0
LWPOLYLINE
5
143
100
AcDbEntity
8
0
100
AcDbPolyline
90
4
70
1
43
0.0
10
11.5
20
1.7500002402958923
10
11.5
20
1.1250002402958923
10
11.374999999999998
20
1.1250002402958923
10
11.374999999999998
20
1.7500002402958923
0
LWPOLYLINE
5
144
100
AcDbEntity
8
0
100
AcDbPolyline
90
4
70
1
43
0.0
10
11.5
20
3.1250002402958921
10
11.5
20
2.5000002402958921
10
11.374999999999998
20
2.5000002402958921
10
11.374999999999998
20
3.1250002402958921
0
LWPOLYLINE
5
145
100
AcDbEntity
8
0
100
AcDbPolyline
90
28
70
1
43
0.0
10
11.875
20
8.0625004805918401
10
11.750000000000501
20
8.0625004805917158
10
11.749999999999854
20
8.6875004805917442
10
11.875
20
8.6875004805918685
10
11.875
20
9.3125004805917477
10
11.749999999998849
20
9.3125004805918667
10
11.749999999998357
20
9.8750004805917708
10
11.499999999999318
20
9.8750004805917779
10
11.499999999999226
20
10.000000480591781
10
11.124999999999295
20
10.000000480591781
10
11.124999999999305
20
9.8750004805917797
10
10.624999999999602
20
9.8750004805917815
10
10.624999999999599
20
10.000000480591781
10
10.24999999999959
20
10.000000480591781
10
10.249999999999591
20
9.875000480591785
10
9.9999999999999982
20
9.875000480591785
10
9.9999999999999982
20
6.8750004805918099
10
10.25
20
6.8750004805918099
10
10.250000000000014
20
6.7500004805917797
10
10.624999999999595
20
6.7500004805917815
10
10.624999999999607
20
6.8750004805917779
10
11.125000000000014
20
6.8750004805918099
10
11.124999999999559
20
6.7500004805917797
10
11.499999999999339
20
6.7500004805917815
10
11.499999999999339
20
6.8750004805918126
10
11.74999999999995
20
6.8750004805918161
10
11.750000000000009
20
7.4375004805918383
10
11.875
20
7.437500480591841
0
LWPOLYLINE
5
146
100
AcDbEntity
8
0
100
AcDbPolyline
90
28
70
1
43
0.0
10
9.7499997597041084
20
8.0625004805918401
10
9.6249997597046093
20
8.0625004805917158
10
9.6249997597039627
20
8.6875004805917442
10
9.7499997597041084
20
8.6875004805918685
10
9.7499997597041084
20
9.3125004805917477
10
9.6249997597029573
20
9.3125004805918667
10
9.6249997597024652
20
9.8750004805917708
10
9.3749997597034262
20
9.8750004805917779
10
9.3749997597033339
20
10.000000480591781
10
8.9999997597034032
20
10.000000480591781
10
8.9999997597034138
20
9.8750004805917797
10
8.4999997597037105
20
9.8750004805917815
10
8.4999997597037069
20
10.000000480591781
10
8.124999759703698
20
10.000000480591781
10
8.1249997597036998
20
9.875000480591785
10
7.8749997597041075
20
9.875000480591785
10
7.8749997597041075
20
6.8750004805918099
10
8.1249997597041084
20
6.8750004805918099
10
8.1249997597041226
20
6.7500004805917797
10
8.4999997597037034
20
6.7500004805917815
10
8.4999997597037158
20
6.8750004805917779
10
8.9999997597041226
20
6.8750004805918099
10
8.9999997597036696
20
6.7500004805917797
10
9.3749997597034476
20
6.7500004805917815
10
9.3749997597034476
20
6.8750004805918126
10
9.6249997597040604
20
6.8750004805918161
10
9.624999759704119
20
7.4375004805918383
10
9.7499997597041084
20
7.437500480591841
0
LWPOLYLINE
5
147
100
AcDbEntity
8
0
100
AcDbPolyline
90
28
70
1
43
0.0
10
7.6249995194082185
20
12.18749975970405
10
7.7499995194077176
20
12.187499759704172
10
7.7499995194083624
20
11.562499759704144
10
7.6249995194082176
20
11.562499759704021
10
7.6249995194082176
20
10.937499759704144
10
7.7499995194093678
20
10.937499759704023
10
7.7499995194098608
20
10.374999759704117
10
7.9999995194088989
20
10.374999759704112
10
7.9999995194089912
20
10.249999759704108
10
8.374999519408922
20
10.249999759704107
10
8.3749995194089113
20
10.374999759704108
10
8.8749995194086146
20
10.374999759704108
10
8.8749995194086182
20
10.249999759704107
10
9.2499995194086271
20
10.249999759704107
10
9.2499995194086271
20
10.374999759704103
10
9.4999995194082167
20
10.374999759704103
10
9.4999995194082203
20
13.374999759704076
10
9.2499995194082185
20
13.374999759704078
10
9.2499995194082043
20
13.499999759704108
10
8.8749995194086235
20
13.499999759704108
10
8.8749995194086111
20
13.37499975970411
10
8.3749995194082043
20
13.374999759704076
10
8.3749995194086591
20
13.499999759704108
10
7.9999995194088793
20
13.499999759704108
10
7.9999995194088793
20
13.374999759704076
10
7.7499995194082674
20
13.374999759704073
10
7.7499995194082087
20
12.81249975970405
10
7.6249995194082185
20
12.812499759704048
0
LWPOLYLINE
5
148
100
AcDbEntity
8
0
100
AcDbPolyline
90
28
70
1
43
0.0
10
11.62499975970411
20
11.562500240295948
10
11.499999759704611
20
11.562500240295826
10
11.499999759703964
20
12.187500240295854
10
11.62499975970411
20
12.187500240295979
10
11.62499975970411
20
12.812500240295854
10
11.499999759702959
20
12.812500240295975
10
11.499999759702467
20
13.375000240295881
10
11.249999759703428
20
13.375000240295886
10
11.249999759703336
20
13.50000024029589
10
10.874999759703405
20
13.500000240295892
10
10.874999759703416
20
13.375000240295888
10
10.374999759703712
20
13.375000240295892
10
10.374999759703707
20
13.500000240295892
10
9.9999997597036998
20
13.500000240295892
10
9.9999997597036998
20
13.375000240295893
10
9.7499997597041084
20
13.375000240295893
10
9.7499997597041084
20
10.375000240295918
10
9.9999997597041084
20
10.375000240295918
10
9.9999997597041244
20
10.250000240295888
10
10.374999759703705
20
10.25000024029589
10
10.374999759703718
20
10.375000240295886
10
10.874999759704124
20
10.375000240295918
10
10.87499975970367
20
10.250000240295888
10
11.249999759703449
20
10.25000024029589
10
11.249999759703449
20
10.375000240295922
10
11.49999975970406
20
10.375000240295925
10
11.499999759704119
20
10.937500240295947
10
11.62499975970411
20
10.93750024029595
0
LWPOLYLINE
5
149
100
AcDbEntity
8
0
100
AcDbPolyline
90
24
70
1
43
0.0
10
6.6249992791123269
20
11.687500961183563
10
6.4999992791123269
20
11.687500961183563
10
6.4999992791123287
20
12.562500961183563
10
6.6249992791123269
20
12.562500961183563
10
6.6249992791123269
20
12.625000961183561
10
7.3749992791123269
20
12.625000961183561
10
7.3749992791123269
20
13.375000961183561
10
6.6874992791123269
20
13.375000961183561
10
6.6874992791123269
20
13.500000961183563
10
6.3124992791123287
20
13.500000961183563
10
6.3124992791123269
20
13.375000961183561
10
5.6249992791123278
20
13.375000961183561
10
5.6249992791123278
20
12.562500961183563
10
5.4999992791123269
20
12.562500961183561
10
5.4999992791123278
20
11.687500961183561
10
5.6249992791123269
20
11.687500961183561
10
5.624999279112326
20
10.875000961183561
10
6.3124992791123269
20
10.875000961183561
10
6.3124992791123269
20
10.750000961183561
10
6.6874992791123269
20
10.750000961183561
10
6.6874992791123269
20
10.875000961183561
10
7.3749992791123269
20
10.875000961183561
10
7.3749992791123269
20
11.625000961183561
10
6.6249992791123269
20
11.625000961183561
0
ENDSEC
0
SECTION
2
OBJECTS
0
DICTIONARY
5
C
100
AcDbDictionary
3
ACAD_GROUP
350
D
3
ACAD_MLINESTYLE
350
17
0
DICTIONARY
5
D
100
AcDbDictionary
0
DICTIONARY
5
1A
330
C
100
AcDbDictionary
0
DICTIONARY
5
17
100
AcDbDictionary
0
ENDSEC
0
EOF
